<?xml version="1.0" encoding="utf-8"?>
<!-- Generator: Adobe Illustrator 16.0.4, SVG Export Plug-In . SVG Version: 6.00 Build 0)  -->
<!DOCTYPE svg PUBLIC "-//W3C//DTD SVG 1.1//EN" "http://www.w3.org/Graphics/SVG/1.1/DTD/svg11.dtd">
<svg version="1.1" id="Layer_1" xmlns="http://www.w3.org/2000/svg" xmlns:xlink="http://www.w3.org/1999/xlink" x="0px" y="0px"
	 width="29.846px" height="23.275px" viewBox="0 0 29.846 23.275" enable-background="new 0 0 29.846 23.275" xml:space="preserve">
<g>
	<defs>
		<rect id="SVGID_1_" x="0.216" y="0.217" width="29.446" height="22.876"/>
	</defs>
	<clipPath id="SVGID_2_">
		<use xlink:href="#SVGID_1_"  overflow="visible"/>
	</clipPath>
	<path clip-path="url(#SVGID_2_)" fill="#31C117" d="M28.826,0.926c-1.062-0.992-2.729-0.935-3.721,0.127L10.455,16.738
		l-5.808-5.425c-1.062-0.991-2.728-0.935-3.721,0.127c-0.993,1.062-0.936,2.73,0.127,3.72l7.708,7.203
		c0.008,0.006,0.013,0.016,0.021,0.023c0.423,0.393,0.941,0.623,1.474,0.688c0.807,0.1,1.649-0.176,2.247-0.814L28.953,4.647
		C29.947,3.585,29.889,1.919,28.826,0.926"/>
</g>
</svg>
